# xmcd
# Copyright (C) 1995-1998 Ti Kan
#
# Track frame offsets:
#       150
#       17057
#       27562
#       41160
#       52125
#       75685
#       77115
#       93750
#       110170
#       123285
#       144257
#       158095
#       182600
#       197610
#
# Disc length: 2830 seconds
#
# Revision: 2
# Processed by: cddbd v1.4PL0 Copyright (c) Steve Scherf et al.
# Submitted via: CD-Transfer v1.0
#
DISCID=b50b0c0e
DTITLE=Vollmond - Chopfsalat
DYEAR=2001
DGENRE=
TTITLE0=Furt Vo Mir
TTITLE1=Chips and Bordeaux
TTITLE2=Troumfrou
TTITLE3=Paradis
TTITLE4=Mittwuch Namittag
TTITLE5=Intro
TTITLE6=Columbus
TTITLE7=Hoffnig
TTITLE8=Brandstifter
TTITLE9=Prinzässin
TTITLE10=Vogu
TTITLE11=Mondsüchtig
TTITLE12=Basel - Bärn
TTITLE13=Kick
EXTD=
EXTT0=
EXTT1=
EXTT2=
EXTT3=
EXTT4=
EXTT5=
EXTT6=
EXTT7=
EXTT8=
EXTT9=
EXTT10=
EXTT11=
EXTT12=
EXTT13=
PLAYORDER=
